<svg xmlns="http://www.w3.org/2000/svg" xmlns:xlink="http://www.w3.org/1999/xlink" version="1.1" id="Layer_1" x="0px" y="0px" viewBox="0 0 100 100" enable-background="new 0 0 100 100" xml:space="preserve" height="100px" width="100px">
<path d="M89.686,32.153c-12.913,0.892-24.763,5.423-31.13,7.856c-1.696,0.649-3.031,1.156-3.708,1.338  c-0.863-0.574-1.848-0.893-2.891-0.893h-3.913c-1.032,0-2.034,0.324-2.888,0.89c-0.731-0.199-2.046-0.697-3.713-1.335  c-6.366-2.433-18.217-6.964-31.13-7.856c-1.379-0.094-2.742,0.388-3.747,1.326C5.557,34.422,5,35.703,5,37.085v25.83  c0,1.382,0.557,2.662,1.567,3.606c0.922,0.86,2.147,1.338,3.405,1.338c0.114,0,0.228-0.004,0.342-0.012  c12.913-0.892,24.763-5.423,31.13-7.856c1.667-0.638,2.983-1.137,3.712-1.334c0.858,0.565,1.86,0.888,2.889,0.888h3.913  c1.04,0,2.023-0.316,2.889-0.888c0.732,0.199,2.046,0.697,3.711,1.334c6.366,2.434,18.217,6.964,31.13,7.856  c0.115,0.008,0.228,0.012,0.342,0.012c1.258,0,2.483-0.478,3.405-1.338C94.443,65.578,95,64.297,95,62.915v-25.83  c0-1.382-0.557-2.663-1.567-3.606C92.429,32.541,91.067,32.061,89.686,32.153z M40.765,58.216  c-6.274,2.398-17.952,6.863-30.582,7.735c-0.865,0.062-1.689-0.231-2.319-0.82C7.242,64.552,6.9,63.765,6.9,62.915v-25.83  c0-0.85,0.342-1.637,0.963-2.217c0.63-0.588,1.455-0.88,2.319-0.82c12.63,0.873,24.309,5.337,30.582,7.735  c1.167,0.446,2.117,0.806,2.897,1.075c-0.544,0.83-0.866,1.79-0.875,2.811l-10.76-2.584c-0.51-0.122-1.023,0.192-1.146,0.702  c-0.122,0.51,0.192,1.023,0.702,1.145l11.199,2.689v4.755l-11.199,2.689c-0.51,0.122-0.825,0.636-0.702,1.146  c0.105,0.436,0.494,0.729,0.923,0.729c0.073,0,0.148-0.009,0.223-0.027l10.761-2.584c0.01,1.019,0.331,1.979,0.874,2.809  C42.891,57.406,41.938,57.767,40.765,58.216z M51.957,57.645h-3.913c-0.765,0-1.515-0.266-2.112-0.747  c-0.795-0.643-1.251-1.599-1.251-2.621v-8.56c0-1.02,0.455-1.971,1.253-2.613c0.595-0.484,1.345-0.751,2.11-0.751h3.913  c0.772,0,1.503,0.26,2.114,0.754c0.794,0.639,1.249,1.59,1.249,2.61v8.56c0,1.022-0.456,1.977-1.247,2.618  C53.46,57.386,52.728,57.645,51.957,57.645z M93.1,62.915c0,0.849-0.342,1.637-0.963,2.216c-0.63,0.588-1.457,0.882-2.319,0.82  c-12.63-0.873-24.309-5.337-30.582-7.735c-1.172-0.448-2.125-0.809-2.895-1.076c0.542-0.83,0.864-1.79,0.874-2.809l10.76,2.584  c0.075,0.018,0.149,0.027,0.223,0.027c0.429,0,0.818-0.293,0.923-0.729c0.122-0.51-0.192-1.023-0.702-1.146L57.22,52.378v-4.756  l11.198-2.689c0.51-0.122,0.825-0.636,0.702-1.145c-0.123-0.51-0.632-0.827-1.146-0.702l-10.759,2.584  c-0.009-1.02-0.331-1.98-0.874-2.809c0.77-0.267,1.722-0.628,2.895-1.076c6.274-2.398,17.952-6.863,30.582-7.735  c0.862-0.061,1.688,0.231,2.319,0.82c0.621,0.58,0.963,1.367,0.963,2.217V62.915z"/>
</svg>